#!OML:ASF H:\Terrain\Patient Classification 1\Terrain2\Thursday\justin.ASF
:FULLY-SPECIFIED
:DEGREES
2561
root -1.39136 19.3177 4.0735 33.0201 -28.5149 -23.0859
lowerback 15.4612 1.42584 9.50323
upperback 2.54628 3.61123 4.38398
thorax -5.64086 1.56683 -1.39034
lowerneck -14.6038 4.48662 -4.19568
upperneck 32.1481 6.59946 2.50266
head 12.9126 2.60028 2.65355
rclavicle 5.64548e-014 -6.2816e-014
rhumerus -31.2369 3.28162 -84.123
rradius 56.284
rwrist -2.49728
rhand -19.8656 12.3609
rfingers 7.12502
rthumb 6.46955 -17.5203
lclavicle 5.64548e-014 -6.2816e-014
lhumerus -28.8656 -0.18795 68.4396
lradius 48.9265
lwrist 10.2915
lhand -22.1373 17.0006
lfingers 7.12502
lthumb 4.27615 46.9374
rfemur 7.7881 5.44714 18.8017
rtibia 29.4833
rfoot 19.7916 -1.38592
rtoes 9.54321
lfemur -63.9564 15.7734 3.24321
ltibia 60.816
lfoot -8.50663 -9.67577
ltoes 28.2585
2562
root -1.38729 19.4207 4.16602 32.9074 -28.47 -22.7622
lowerback 15.3725 1.41315 9.07082
upperback 2.57397 3.51937 4.50959
thorax -5.60616 1.53399 -0.998075
lowerneck -14.5055 4.54845 -4.43648
upperneck 32.0551 6.80649 2.33222
head 12.8437 2.64411 2.6509
rclavicle 4.37326e-015 -2.06736e-014
rhumerus -31.1082 3.41319 -83.7302
rradius 56.4525
rwrist -2.72657
rhand -19.9247 12.5813
rfingers 7.12502
rthumb 6.41253 -17.3016
lclavicle 4.37326e-015 -2.06736e-014
lhumerus -29.143 0.201211 68.9059
lradius 48.8949
lwrist 9.80143
lhand -22.2475 17.1642
lfingers 7.12502
lthumb 4.16974 47.1031
rfemur 5.92461 5.34369 18.6119
rtibia 33.6855
rfoot 19.627 -2.33717
rtoes 10.217
lfemur -63.0594 15.5237 2.81893
ltibia 59.656
lfoot -8.32892 -9.9794
ltoes 28.6694
2563
root -1.38143 19.5205 4.26377 32.595 -28.5324 -22.318
lowerback 15.3191 1.40567 8.72731
upperback 2.66973 3.43455 4.42561
thorax -5.49583 1.50593 -0.879079
lowerneck -14.6647 4.57375 -4.70835
upperneck 32.2331 6.84795 2.59805
head 12.9246 2.65765 2.81659
rclavicle -1.02175e-013 -1.82882e-014
rhumerus -30.9442 3.33161 -83.4962
rradius 56.5741
rwrist -3.16122
rhand -20.2925 13.1411
rfingers 7.12502
rthumb 6.05745 -16.7523
lclavicle -1.02175e-013 -1.82882e-014
lhumerus -29.2506 0.17254 69.2191
lradius 48.7495
lwrist 9.85742
lhand -21.8973 17.3345
lfingers 7.12502
lthumb 4.5079 47.2665
rfemur 4.23396 5.11331 18.16
rtibia 37.91
rfoot 19.8291 -3.47494
rtoes 12.4307
lfemur -61.9629 15.232 2.30822
ltibia 58.4911
lfoot -8.12794 -10.3567
ltoes 29.4735
2564
root -1.37409 19.6115 4.3634 32.101 -28.7523 -21.5819
lowerback 15.2443 1.45714 8.32081
upperback 2.73036 3.40975 4.14728
thorax -5.39812 1.50688 -0.942336
lowerneck -14.7598 4.54595 -4.81732
upperneck 32.4369 6.78185 2.80768
head 13.0178 2.63572 2.91779
rclavicle 5.64548e-014 6.36111e-015
rhumerus -31.0321 2.91343 -83.2807
rradius 56.7965
rwrist -3.57019
rhand -20.5766 13.1146
rfingers 7.12502
rthumb 5.78315 -16.7865
lclavicle 5.64548e-014 6.36111e-015
lhumerus -29.2914 -0.15471 69.5084
lradius 48.5044
lwrist 10.131
lhand -21.9201 17.2997
lfingers 7.12502
lthumb 4.48588 47.2322
rfemur 2.62221 4.84313 17.3247
rtibia 42.1169
rfoot 20.0531 -4.21562
rtoes 13.7443
lfemur -60.7938 14.878 1.43393
ltibia 57.3151
lfoot -8.12319 -10.6357
ltoes 29.9148
2565
root -1.37056 19.6966 4.45849 31.6363 -28.9257 -21.051
lowerback 15.2844 1.48814 7.94184
upperback 2.77311 3.38699 4.0496
thorax -5.39259 1.50388 -0.833069
lowerneck -14.9106 4.56696 -4.85199
upperneck 32.6443 6.86704 2.72159
head 13.1376 2.64807 2.91704
rclavicle 4.33351e-014 -1.59028e-014
rhumerus -31.0753 2.59952 -82.9685
rradius 56.8595
rwrist -3.8768
rhand -20.5918 12.7467
rfingers 7.12502
rthumb 5.76849 -17.1547
lclavicle 4.33351e-014 -1.59028e-014
lhumerus -29.5193 -0.238107 69.9488
lradius 48.3212
lwrist 10.4442
lhand -22.2176 17.0478
lfingers 7.12502
lthumb 4.19861 46.9862
rfemur 1.13147 4.86669 16.7805
rtibia 46.2314
rfoot 20.1216 -5.30359
rtoes 17.2685
lfemur -59.5738 14.6831 0.725128
ltibia 56.1025
lfoot -8.01953 -11.0313
ltoes 30.6908
